<?xml version="1.0" encoding="UTF-8"?>
<svg xmlns="http://www.w3.org/2000/svg" viewBox="180 175 440 350">
  <path fill="#374D72" d="M565.23,412.62c3.34-7.65-.15-16.55-7.8-19.89-7.65-3.34-16.55.15-19.89,7.8-21.47,49.15-70.09,81.6-124.66,81.6-75.09,0-135.96-60.88-135.96-135.96s60.87-135.96,135.96-135.96c54.56,0,103.17,32.43,124.66,81.57,3.34,7.64,12.25,11.13,19.89,7.79,7.64-3.34,11.13-12.25,7.79-19.89-26.25-60.04-85.67-99.68-152.34-99.68-91.78,0-166.18,74.4-166.18,166.18s74.4,166.18,166.18,166.18c66.69,0,126.11-39.65,152.34-99.72Z"/>
  <path fill="#79AB74" d="M443.1,346.16c0,8.34,6.76,15.11,15.11,15.11h135.96c8.34,0,15.11-6.76,15.11-15.11s-6.76-15.11-15.11-15.11h-135.96c-8.34,0-15.11,6.76-15.11,15.11Z"/>
</svg>
